<?xml version="1.0" encoding="UTF-8"?>
<svg version="1.1" xmlns="http://www.w3.org/2000/svg" width="280" height="280">
<path d="M0 0 C0.72638672 0.20898926 1.45277344 0.41797852 2.20117188 0.63330078 C34.10822986 10.13283745 62.21182124 32.81435577 78.13867188 62.09326172 C87.53100577 80.27939842 93.1336335 99.47794348 94 120 C94.061875 121.18722656 94.061875 121.18722656 94.125 122.3984375 C94.47649953 135.27210789 92.45776163 148.64001873 89 161 C88.68546875 162.14339844 88.3709375 163.28679687 88.046875 164.46484375 C81.87724726 184.82027047 70.46719627 201.61510844 56 217 C55.4740625 217.59039062 54.948125 218.18078125 54.40625 218.7890625 C32.90280711 241.93817704 -0.08042912 253.67900365 -31 255 C-32.18529297 255.061875 -32.18529297 255.061875 -33.39453125 255.125 C-64.09011887 255.96167701 -95.83547316 245.17308132 -119 225 C-119.81984375 224.30132812 -120.6396875 223.60265625 -121.484375 222.8828125 C-144.652471 202.66469146 -162.68219488 172.20452453 -165 141 C-166.47987283 108.40756263 -166.47987283 108.40756263 -162 93 C-161.77957031 92.21189941 -161.55914062 91.42379883 -161.33203125 90.61181641 C-156.01036868 71.92616391 -147.52591433 55.83899397 -135 41 C-134.18660156 40.03449219 -133.37320313 39.06898437 -132.53515625 38.07421875 C-115.46185155 18.57342997 -92.69995591 6.07469325 -68 -1 C-66.81921875 -1.34289062 -65.6384375 -1.68578125 -64.421875 -2.0390625 C-44.2676225 -6.78907355 -19.80014962 -5.79354154 0 0 Z " fill="#FBFBFB" transform="translate(176,15)"/>
<path d="M0 0 C0.72638672 0.20898926 1.45277344 0.41797852 2.20117188 0.63330078 C34.10822986 10.13283745 62.21182124 32.81435577 78.13867188 62.09326172 C87.53100577 80.27939842 93.1336335 99.47794348 94 120 C94.061875 121.18722656 94.061875 121.18722656 94.125 122.3984375 C94.47649953 135.27210789 92.45776163 148.64001873 89 161 C88.68546875 162.14339844 88.3709375 163.28679687 88.046875 164.46484375 C81.87724726 184.82027047 70.46719627 201.61510844 56 217 C55.4740625 217.59039062 54.948125 218.18078125 54.40625 218.7890625 C32.90280711 241.93817704 -0.08042912 253.67900365 -31 255 C-32.18529297 255.061875 -32.18529297 255.061875 -33.39453125 255.125 C-64.09011887 255.96167701 -95.83547316 245.17308132 -119 225 C-119.81984375 224.30132812 -120.6396875 223.60265625 -121.484375 222.8828125 C-144.652471 202.66469146 -162.68219488 172.20452453 -165 141 C-166.47987283 108.40756263 -166.47987283 108.40756263 -162 93 C-161.77957031 92.21189941 -161.55914062 91.42379883 -161.33203125 90.61181641 C-156.01036868 71.92616391 -147.52591433 55.83899397 -135 41 C-134.18660156 40.03449219 -133.37320313 39.06898437 -132.53515625 38.07421875 C-115.46185155 18.57342997 -92.69995591 6.07469325 -68 -1 C-66.81921875 -1.34289062 -65.6384375 -1.68578125 -64.421875 -2.0390625 C-44.2676225 -6.78907355 -19.80014962 -5.79354154 0 0 Z M-66 4 C-66.8559375 4.20496094 -67.711875 4.40992188 -68.59375 4.62109375 C-99.25070636 12.84737704 -126.85382915 33.77567361 -142.92089844 61.11572266 C-149.14195633 71.97864683 -153.88099769 82.86550941 -157 95 C-157.3196875 96.21558594 -157.639375 97.43117188 -157.96875 98.68359375 C-165.143401 130.60414751 -158.09786542 164.95084308 -140.875 192.46484375 C-122.18343094 220.53557515 -94.18343259 240.32455368 -61.15966797 247.33886719 C-29.62868711 253.3413736 3.53277733 247.99025161 30.671875 230.58984375 C31.44015625 230.06519531 32.2084375 229.54054687 33 229 C33.89203125 228.40316406 34.7840625 227.80632812 35.703125 227.19140625 C49.32493486 217.55780008 61.42934352 205.34167969 70 191 C70.34466309 190.42459473 70.68932617 189.84918945 71.04443359 189.25634766 C76.71674878 179.63716613 80.77780927 169.67683799 84 159 C84.21172852 158.32727051 84.42345703 157.65454102 84.64160156 156.96142578 C93.50666699 127.90058928 88.61273001 93.8195162 74.6875 67.125 C68.59598943 55.88920491 60.74193301 46.29542597 52 37 C51.19369141 36.09701172 51.19369141 36.09701172 50.37109375 35.17578125 C29.83285235 13.09331117 -1.64053599 1.7926706 -31.2109375 0.7109375 C-43.15563767 0.46604313 -54.40383886 1.03193495 -66 4 Z " fill="#1B1B1B" transform="translate(176,15)"/>
<path d="M0 0 C7.44442911 3.30863516 11.76203107 8.62522795 15 16 C16.00545225 21.46441441 14.87880057 25.83329844 13 31 C12.74803871 33.70953551 12.74803871 33.70953551 13 36 C14.10796961 37.31120653 14.10796961 37.31120653 16.875 37.375 C18.421875 37.189375 18.421875 37.189375 20 37 C21.82605543 34.67881567 21.82605543 34.67881567 23 32 C23.66 31.34 24.32 30.68 25 30 C25.61117687 38.2508877 23.4360264 45.19865868 18.375 51.8125 C13.78327886 56.78001417 6.3789098 60.48997723 -0.34765625 61.2734375 C-9.10385217 61.60100742 -14.5926104 58.84031774 -21.8125 54.1875 C-27.65039124 48.34960876 -30.1494627 42.33108798 -30.375 34.125 C-30.36163744 27.65752262 -30.36163744 27.65752262 -28.8828125 24.96875 C-27.5 23.625 -27.5 23.625 -25 22 C-24.01 22.33 -23.02 22.66 -22 23 C-22.33 23.33 -22.66 23.66 -23 24 C-23.3972731 28.96824879 -23.3972731 28.96824879 -21.5 33.4375 C-21.005 33.953125 -20.51 34.46875 -20 35 C-16.70924004 34.62095792 -16.70924004 34.62095792 -14 33 C-14.06639544 31.09435632 -14.06639544 31.09435632 -14.375 28.875 C-14.51808594 27.64910156 -14.51808594 27.64910156 -14.6640625 26.3984375 C-14.94137231 24.41857447 -15.33111166 22.45481225 -15.75 20.5 C-16.076743 15.925598 -15.17514182 12.05188874 -13 8 C-10.88671875 6.234375 -10.88671875 6.234375 -9 5 C-8.80664062 6.13179687 -8.61328125 7.26359375 -8.4140625 8.4296875 C-8.15145714 9.91153202 -7.88841352 11.39329892 -7.625 12.875 C-7.43550781 13.99455078 -7.43550781 13.99455078 -7.2421875 15.13671875 C-6.54731306 19.50990532 -6.54731306 19.50990532 -4 23 C-1.29160506 22.82526484 -0.25086374 22.26917496 1.60546875 20.27734375 C4.11914813 16.17237154 3.5115955 11.65683082 3 7 C2.22950199 4.42281701 1.27353063 2.38786992 0 0 Z " fill="#040404" transform="translate(143,189)"/>
<path d="M0 0 C3.5954678 1.25556019 6.04614807 3.44141148 8.83203125 5.9453125 C9.99154576 6.95646554 11.1517116 7.96687213 12.3125 8.9765625 C12.88661621 9.48058594 13.46073242 9.98460938 14.05224609 10.50390625 C16.37904425 12.53067171 18.75592937 14.49196696 21.14453125 16.4453125 C22.0159375 17.15816406 22.88734375 17.87101562 23.78515625 18.60546875 C26.00942091 20.38666465 28.24637735 22.14074405 30.50390625 23.87890625 C31.1491626 24.37777344 31.79441895 24.87664062 32.45922852 25.390625 C33.73142387 26.37153304 35.0078556 27.34697549 36.28881836 28.31640625 C37.7979902 29.48026807 39.25778225 30.7076327 40.70703125 31.9453125 C40.70703125 32.6053125 40.70703125 33.2653125 40.70703125 33.9453125 C41.26519531 34.19410156 41.82335937 34.44289062 42.3984375 34.69921875 C45.10747355 36.16145648 47.27667445 37.91375263 49.64453125 39.8828125 C50.62035156 40.69234375 51.59617188 41.501875 52.6015625 42.3359375 C56.22952315 45.37734164 59.83995968 48.43947638 63.44702148 51.50561523 C68.70997594 55.9703383 74.04227995 60.34894939 79.37792969 64.72631836 C84.52557378 68.95540852 89.62816198 73.23365115 94.68554688 77.5703125 C96.96557839 79.51690067 99.20711876 81.27870418 101.70703125 82.9453125 C101.22325544 89.355342 101.22325544 89.355342 98.95703125 91.9453125 C95.96584907 93.2747268 94.82382856 92.93984611 91.70703125 91.9453125 C89.54028588 90.33605864 87.57934968 88.74073592 85.58203125 86.9453125 C84.42389422 85.93407394 83.26502915 84.92366861 82.10546875 83.9140625 C81.53151367 83.41003906 80.95755859 82.90601563 80.36621094 82.38671875 C78.02359316 80.35157817 75.61896658 78.39749476 73.20703125 76.4453125 C69.14372645 73.13907176 65.13403816 69.77714821 61.14453125 66.3828125 C57.37614186 63.17792059 53.58457097 60.01843556 49.70703125 56.9453125 C45.82948518 53.87218442 42.03803264 50.71257864 38.26953125 47.5078125 C33.48314322 43.43799532 28.65714418 39.42442493 23.78515625 35.45703125 C21.39508686 33.50675889 19.01006147 31.55095618 16.62890625 29.58984375 C15.90533936 28.99397461 15.18177246 28.39810547 14.4362793 27.78417969 C12.95706681 26.56400354 11.47934843 25.34201371 10.00317383 24.11816406 C6.76237517 21.43556988 3.51651993 18.77512314 0.171875 16.22265625 C-0.82714844 15.45050781 -1.82617188 14.67835937 -2.85546875 13.8828125 C-3.72300781 13.23183594 -4.59054688 12.58085938 -5.484375 11.91015625 C-7.29296875 9.9453125 -7.29296875 9.9453125 -7.70703125 7.37890625 C-7.00895338 3.27605236 -4.37212675 -0.1042756 0 0 Z " fill="#040404" transform="translate(99.29296875,96.0546875)"/>
<path d="M0 0 C4.54071365 1.46583335 7.76266969 4.04531733 11.3125 7.125 C11.86228516 7.59292969 12.41207031 8.06085938 12.97851562 8.54296875 C14.32396409 9.68952483 15.662679 10.84397451 17 12 C15.48133302 15.39743025 13.49720998 18.01618284 11.125 20.875 C9.92230469 22.32519531 9.92230469 22.32519531 8.6953125 23.8046875 C5.31482857 27.82763905 1.88696838 31.80998211 -1.54296875 35.79077148 C-5.44493493 40.32705666 -9.24725475 44.93320894 -13.01953125 49.578125 C-15.62662461 52.7662865 -18.30282648 55.8878767 -21 59 C-25.08031121 58.46037648 -27.13041887 56.32652822 -30.0625 53.5625 C-32.66124502 51.12788624 -35.03292539 48.97804974 -38 47 C-36.63733356 42.96194134 -34.8590849 40.45631882 -31.9375 37.375 C-28.73339438 33.91579043 -25.65157731 30.41723434 -22.6875 26.75 C-17.73562019 20.63399406 -12.61285946 14.67248223 -7.47509766 8.71289062 C-4.97798802 5.81323468 -2.48915627 2.90648342 0 0 Z " fill="#030303" transform="translate(224,169)"/>
<path d="M0 0 C2.03833424 1.2739589 4.03852126 2.61061923 6 4 C6 4.66 6 5.32 6 6 C4.52678035 7.16693698 2.99178818 8.25594602 1.4375 9.3125 C-12.07757358 17.89790287 -12.07757358 17.89790287 -21.08203125 30.22265625 C-21.27334312 32.24035876 -21.41245588 34.26387941 -21.4921875 36.2890625 C-22.32479308 40.73389536 -25.51365371 42.42610988 -28.94921875 45.078125 C-31.7909398 47.74122359 -32.10109941 49.94738365 -32.6328125 53.6953125 C-33.54853929 59.44295935 -35.52510168 63.84957931 -40.125 67.4375 C-42.93944892 68.80009789 -45.47743459 69.23493426 -48.5625 69.625 C-54.47814322 70.54762325 -58.46320582 73.92897685 -62.91430664 77.72119141 C-64.60546875 79.078125 -64.60546875 79.078125 -68 81 C-71.80078125 80.484375 -71.80078125 80.484375 -75 79 C-75.66 78.01 -76.32 77.02 -77 76 C-74.42786866 74.38050989 -73.32330841 73.95591249 -70.25 74.375 C-69.5075 74.58125 -68.765 74.7875 -68 75 C-68.18369141 73.91138672 -68.18369141 73.91138672 -68.37109375 72.80078125 C-68 70 -68 70 -65.47265625 67.54296875 C-64.35260682 66.73421098 -63.21462697 65.9498669 -62.0625 65.1875 C-61.47291504 64.78660156 -60.88333008 64.38570313 -60.27587891 63.97265625 C-55.14104383 60.68814929 -51.92059833 60.23605183 -46 61 C-44.515 60.505 -44.515 60.505 -43 60 C-42.04313885 57.37906326 -41.81159462 54.72165754 -41.5703125 51.953125 C-41.49683594 51.19 -41.42335937 50.426875 -41.34765625 49.640625 C-41.20072752 48.06307441 -41.0599695 46.48493535 -40.92578125 44.90625 C-40.10718894 36.63708024 -37.85029216 28.38259089 -31.45556641 22.60449219 C-29.61220293 21.13536084 -27.72863812 19.7477974 -25.8125 18.375 C-25.12285156 17.86936523 -24.43320313 17.36373047 -23.72265625 16.84277344 C-21.49148921 15.21454317 -19.24822481 13.60458555 -17 12 C-16.20513184 11.43249023 -15.41026367 10.86498047 -14.59130859 10.28027344 C-9.74452423 6.82902702 -4.87894699 3.40560161 0 0 Z " fill="#070707" transform="translate(126,136)"/>
<path d="M0 0 C3.558577 1.37903268 3.95117537 1.90886068 5.875 5.5 C7.8282093 10.28575187 9.51224626 15.17375954 11.1875 20.0625 C11.44966309 20.81789063 11.71182617 21.57328125 11.98193359 22.3515625 C13.61523567 27.25253415 14.51527644 31.85492226 15 37 C9.78787879 41 9.78787879 41 6.72265625 41 C2.70896242 39.5258169 0.16213573 36.88379173 -2.875 33.9375 C-3.49487793 33.34839844 -4.11475586 32.75929687 -4.75341797 32.15234375 C-9.10147385 27.97930828 -13.18790172 23.67037772 -17 19 C-17.825 18.113125 -18.65 17.22625 -19.5 16.3125 C-21 14 -21 14 -20.859375 11.55078125 C-19.77701323 8.33813472 -18.6170573 7.6123228 -15.75 5.875 C-14.93402344 5.37484375 -14.11804688 4.8746875 -13.27734375 4.359375 C-12.52582031 3.91078125 -11.77429688 3.4621875 -11 3 C-10.113125 2.38125 -9.22625 1.7625 -8.3125 1.125 C-5.33245569 -0.32475128 -3.27793445 -0.34871643 0 0 Z " fill="#050505" transform="translate(113,28)"/>
<path d="M0 0 C3.84589216 1.50131507 7.47037322 3.33519555 11.125 5.25 C12.55005859 5.96736328 12.55005859 5.96736328 14.00390625 6.69921875 C19.34432736 9.4323885 24.22139701 12.37302709 29 16 C27.125 23.875 27.125 23.875 26 25 C22.34148413 25.25963943 18.66658668 25.1902639 15 25.1875 C13.91960449 25.18669434 12.83920898 25.18588867 11.72607422 25.18505859 C5.15067627 25.13538517 -1.34155943 24.88024838 -7.875 24.125 C-8.57496094 24.04660889 -9.27492188 23.96821777 -9.99609375 23.88745117 C-14.73687086 23.26312914 -14.73687086 23.26312914 -17 21 C-17.86107764 14.39840475 -15.8203065 7.9539804 -13 2 C-9.45873327 -2.31263176 -4.91114032 -1.25542313 0 0 Z " fill="#050505" transform="translate(46,92)"/>
<path d="M0 0 C1.28777344 -0.00386719 1.28777344 -0.00386719 2.6015625 -0.0078125 C8.83404406 0.08957002 8.83404406 0.08957002 11.11938477 1.82348633 C13.3270452 4.77118304 12.75368168 8.01784678 12.375 11.5 C11.59127119 16.30643342 10.59625106 21.05431248 9.5625 25.8125 C9.30146484 27.08673828 9.04042969 28.36097656 8.77148438 29.67382812 C8.51044922 30.89134766 8.24941406 32.10886719 7.98046875 33.36328125 C7.74481201 34.46969971 7.50915527 35.57611816 7.26635742 36.71606445 C6.3666814 39.52598109 5.71824866 40.75904415 3.375 42.5 C0.64992202 42.89078556 -1.85621956 42.63616953 -4.625 42.5 C-8.60217169 34.80645476 -10.90028485 27.19121928 -12.828125 18.80859375 C-13.45860425 15.64500246 -13.45860425 15.64500246 -14.625 13.5 C-15.31540519 6.48088055 -15.31540519 6.48088055 -12.703125 2.76953125 C-8.43075603 -0.3805276 -5.16767633 -0.17225588 0 0 Z " fill="#050505" transform="translate(141.625,21.5)"/>
<path d="M0 0 C2.78738931 1.12970994 5.30470862 2.57087033 7.875 4.125 C8.56335938 4.50398438 9.25171875 4.88296875 9.9609375 5.2734375 C13.03270342 7.1018696 14.78090954 8.3305047 15.91015625 11.78125 C14.49111447 16.79966384 11.19011892 19.74296156 7.5625 23.375 C6.8305542 24.12652344 6.0986084 24.87804687 5.34448242 25.65234375 C3.24864736 27.78834492 1.13121082 29.89935551 -1 32 C-1.51498047 32.51079102 -2.02996094 33.02158203 -2.56054688 33.54785156 C-9.74797968 40.59280222 -9.74797968 40.59280222 -15 41 C-18.3125 39.0625 -18.3125 39.0625 -21 37 C-19.70767889 29.46232661 -17.67269435 22.3512525 -15.1875 15.125 C-14.6915332 13.59746094 -14.6915332 13.59746094 -14.18554688 12.0390625 C-11.6293061 4.58131589 -9.00818717 -1.43865397 0 0 Z " fill="#040404" transform="translate(174,28)"/>
<path d="M0 0 C6.79560235 1.65768297 11.47261133 12.62931275 14.84521484 18.12084961 C15.42980469 19.04897461 16.01439453 19.97709961 16.61669922 20.93334961 C17.17292969 21.83311523 17.72916016 22.73288086 18.30224609 23.65991211 C19.05405151 24.87348389 19.05405151 24.87348389 19.82104492 26.11157227 C21.0816145 28.59207246 21.62203586 30.75535133 22.03271484 33.49584961 C20.03378723 35.49477723 18.42966543 37.07317917 16.03271484 38.49584961 C13.34521484 38.18334961 13.34521484 38.18334961 10.03271484 36.49584961 C9.29794922 36.14393555 8.56318359 35.79202148 7.80615234 35.42944336 C-1.22033265 30.86166017 -11.75375741 24.70937735 -18.96728516 17.49584961 C-19.33056641 15.25756836 -19.33056641 15.25756836 -18.96728516 12.49584961 C-16.88525391 9.89038086 -16.88525391 9.89038086 -14.15478516 7.30834961 C-13.26146484 6.44854492 -12.36814453 5.58874023 -11.44775391 4.70288086 C-7.67531074 1.34629757 -5.16924637 -0.15989171 0 0 Z " fill="#040404" transform="translate(83.96728515625,44.504150390625)"/>
<path d="M0 0 C4.12703345 3.22856445 4.9555322 8.07504418 6 13 C6.21041343 15.73099097 6.15242086 18.25642451 6 21 C-3.67179998 26.42564389 -16.02014565 25.07555161 -26.8125 25.125 C-28.12963989 25.13213013 -28.12963989 25.13213013 -29.47338867 25.1394043 C-30.70279175 25.13614136 -30.70279175 25.13614136 -31.95703125 25.1328125 C-32.68897705 25.13168457 -33.42092285 25.13055664 -34.17504883 25.12939453 C-36 25 -36 25 -38 24 C-38.4140625 21.93359375 -38.4140625 21.93359375 -38.625 19.4375 C-38.69976562 18.61121094 -38.77453125 17.78492187 -38.8515625 16.93359375 C-38.92503906 15.97646484 -38.92503906 15.97646484 -39 15 C-34.4153782 12.37426206 -29.81567877 9.77894496 -25.19384766 7.21923828 C-23.79670944 6.44277398 -22.40276881 5.66050732 -21.01318359 4.87060547 C-8.15531505 -2.40648641 -8.15531505 -2.40648641 0 0 Z " fill="#040404" transform="translate(246,92)"/>
<path d="M0 0 C3.04138952 1.38870993 4.80605603 3.49829093 7.0703125 5.9453125 C8.0376343 6.96235955 9.0050867 7.97928239 9.97265625 8.99609375 C25.02831099 25.09724606 25.02831099 25.09724606 25.1328125 29.6953125 C24.01800251 32.0560866 22.76189608 33.95954047 21.0703125 35.9453125 C15.79351396 35.40811265 11.40829553 34.0876618 6.5703125 31.8828125 C5.88831787 31.57843262 5.20632324 31.27405273 4.50366211 30.96044922 C-14.57264902 22.30235098 -14.57264902 22.30235098 -17.9296875 18.9453125 C-18.57830799 15.21062402 -17.88697802 13.87721682 -15.83984375 10.61328125 C-6.99933484 -0.61210913 -6.99933484 -0.61210913 0 0 Z " fill="#040404" transform="translate(59.9296875,64.0546875)"/>
<path d="M0 0 C3.55240532 0 4.76534825 0.49020394 7.52734375 2.8125 C15.74977646 11.98111216 15.74977646 11.98111216 16.36645508 16.18652344 C16 18.6875 16 18.6875 14.3894043 20.32128906 C8.69948102 23.81158556 2.93404839 26.77756906 -3.1875 29.4375 C-4.05052734 29.82292969 -4.91355469 30.20835938 -5.80273438 30.60546875 C-17.29445556 35.6875 -17.29445556 35.6875 -23 35.6875 C-25.3125 33.5 -25.3125 33.5 -27 30.6875 C-26.44368728 22.27327018 -8.76894183 0.9286553 0 0 Z " fill="#030303" transform="translate(223,64.3125)"/>
<path d="M0 0 C6.10285756 1.76923232 10.99553067 7.29240567 15.3984375 11.6953125 C15.84765625 14.546875 15.84765625 14.546875 15.3984375 17.6953125 C13.23046875 19.96875 13.23046875 19.96875 10.2109375 22.0703125 C9.40922119 22.63613037 9.40922119 22.63613037 8.59130859 23.21337891 C-10.67200374 36.61321424 -10.67200374 36.61321424 -18.1640625 38.2578125 C-21.95601497 37.38274654 -23.22004913 34.70291425 -25.6015625 31.6953125 C-8.109758 -0.21103459 -8.109758 -0.21103459 0 0 Z " fill="#030303" transform="translate(200.6015625,44.3046875)"/>
<path d="M0 0 C14.53158463 2.73324649 14.53158463 2.73324649 19.875 5.1640625 C19.875 7.8040625 19.875 10.4440625 19.875 13.1640625 C13.53396818 16.24517962 7.29592043 18.31861429 0.4375 19.9140625 C-0.43970703 20.13449219 -1.31691406 20.35492188 -2.22070312 20.58203125 C-8.27487037 22.01861331 -13.91248558 22.43464385 -20.125 22.1640625 C-22.07173458 18.060346 -22.45160302 14.62668047 -22.5 10.1015625 C-22.52835938 8.89371094 -22.55671875 7.68585938 -22.5859375 6.44140625 C-22.125 3.1640625 -22.125 3.1640625 -20.4453125 0.76171875 C-14.73289228 -3.17158069 -6.48873262 -1.12378715 0 0 Z " fill="#030303" transform="translate(48.125,123.8359375)"/>
<path d="M0 0 C0.79792969 -0.03738281 1.59585938 -0.07476562 2.41796875 -0.11328125 C5.92840339 0.51092328 7.43599133 1.66081664 9.8125 4.3125 C10.24280207 7.22832312 10.3825319 9.48788345 10.25 12.375 C10.24419922 13.09494141 10.23839844 13.81488281 10.23242188 14.55664062 C10.1454904 18.30164836 9.93085434 20.13496849 7.8125 23.3125 C0.26625481 24.07551771 -6.18973251 22.23985378 -13.375 20.0625 C-14.42880859 19.76214844 -15.48261719 19.46179688 -16.56835938 19.15234375 C-22.03078141 17.53461322 -26.82254917 16.05175822 -31.1875 12.3125 C-31.63817148 9.09341798 -31.642776 7.22305201 -30.1875 4.3125 C-27.48880718 3.68926597 -24.85491519 3.18393942 -22.125 2.75 C-21.38572266 2.62431641 -20.64644531 2.49863281 -19.88476562 2.36914062 C-13.30690127 1.26995244 -6.6739315 0.20685921 0 0 Z " fill="#050505" transform="translate(244.1875,123.6875)"/>
<path d="M0 0 C-3.03720596 4.80645214 -6.4816939 9.00074983 -10.25 13.25 C-13.94092438 17.4571519 -17.59819432 21.66465511 -21.0625 26.0625 C-24.41091436 30.30717088 -27.87030415 34.44675562 -31.375 38.5625 C-32.16209351 39.49364624 -32.16209351 39.49364624 -32.96508789 40.44360352 C-36.7634246 44.8817123 -36.7634246 44.8817123 -39 46 C-39.72960862 44.4473205 -40.43292641 42.88226957 -41.125 41.3125 C-41.51945313 40.44238281 -41.91390625 39.57226562 -42.3203125 38.67578125 C-43.1852332 35.27077733 -42.69516075 34.04358407 -41 31 C-39.0546875 28.54296875 -39.0546875 28.54296875 -36.875 26.1875 C-35.78832031 25.00220703 -35.78832031 25.00220703 -34.6796875 23.79296875 C-34.12539062 23.20128906 -33.57109375 22.60960937 -33 22 C-32.40445313 22.18820313 -31.80890625 22.37640625 -31.1953125 22.5703125 C-27.71996712 23.25054024 -25.88603468 21.88219653 -23 20 C-21.39980539 17.79174051 -21.39980539 17.79174051 -21 15 C-21.28875 13.9275 -21.5775 12.855 -21.875 11.75 C-22.01826234 7.45212993 -21.42755609 6.39026664 -18.9375 3 C-13.41657716 -2.81615935 -7.33040972 -1.41048614 0 0 Z " fill="#070707" transform="translate(223,167)"/>
<path d="M0 0 C2.32531378 1.69457768 3.17901984 2.89839217 4.16015625 5.57421875 C3.49371094 6.10789063 2.82726562 6.6415625 2.140625 7.19140625 C-2.78581768 11.17390117 -7.57384162 15.19879924 -12.21484375 19.51171875 C-16.23810799 23.17812693 -20.30396066 26.76610813 -24.52734375 30.19921875 C-25.54183594 31.03710938 -26.55632812 31.875 -27.6015625 32.73828125 C-31.76999249 35.10156484 -34.12389034 34.93187502 -38.83984375 34.57421875 C-38.49050781 34.12691406 -38.14117187 33.67960937 -37.78125 33.21875 C-37.32621094 32.61417969 -36.87117188 32.00960937 -36.40234375 31.38671875 C-35.94988281 30.79503906 -35.49742188 30.20335937 -35.03125 29.59375 C-33.67844794 27.61241234 -33.67844794 27.61241234 -33.55859375 25.15234375 C-32.49984105 21.35464384 -29.83299939 19.74065184 -26.77734375 17.51171875 C-26.16189697 17.04999268 -25.5464502 16.5882666 -24.91235352 16.11254883 C-23.58945857 15.12066784 -22.26306843 14.13343488 -20.93359375 13.15039062 C-18.76209185 11.51568723 -16.64353808 9.8266547 -14.52734375 8.12109375 C-13.11098317 7.00091495 -11.69432329 5.88111448 -10.27734375 4.76171875 C-9.6114624 4.21572021 -8.94558105 3.66972168 -8.25952148 3.10717773 C-3.55921329 -0.53363721 -3.55921329 -0.53363721 0 0 Z " fill="#060606" transform="translate(139.83984375,146.42578125)"/>
<path d="M0 0 C1.06863281 0.01804688 2.13726562 0.03609375 3.23828125 0.0546875 C4.04652344 0.07789063 4.85476562 0.10109375 5.6875 0.125 C5.3575 2.765 5.0275 5.405 4.6875 8.125 C3.31464844 8.19847656 3.31464844 8.19847656 1.9140625 8.2734375 C0.72554687 8.34820312 -0.46296875 8.42296875 -1.6875 8.5 C-3.46253906 8.60441406 -3.46253906 8.60441406 -5.2734375 8.7109375 C-8.41812319 8.82717346 -8.41812319 8.82717346 -10.3125 11.125 C-10.3326924 12.81250779 -10.30456423 14.50075372 -10.25 16.1875 C-10.52195514 20.1517691 -11.01733197 21.77461346 -13.609375 24.8515625 C-20.85705524 31.02188487 -20.85705524 31.02188487 -25.67578125 31.36328125 C-26.98095703 31.24533203 -26.98095703 31.24533203 -28.3125 31.125 C-28.580625 32.094375 -28.84875 33.06375 -29.125 34.0625 C-29.516875 35.073125 -29.90875 36.08375 -30.3125 37.125 C-31.7975 37.62 -31.7975 37.62 -33.3125 38.125 C-34.8339596 35.08208081 -34.88877079 33.51859463 -34.3125 30.125 C-31.38615535 26.74260164 -27.83285841 24.09177843 -24.0703125 21.69921875 C-19.81994206 19.01662375 -19.81994206 19.01662375 -17.54296875 14.703125 C-17.26717573 12.96073172 -17.01531567 11.21435958 -16.7890625 9.46484375 C-16.05270835 5.8494656 -14.20414097 4.27691886 -11.3125 2.125 C-7.4135653 0.20902865 -4.32168347 -0.09498205 0 0 Z " fill="#0C0C0C" transform="translate(79.3125,171.875)"/>
<path d="M0 0 C4.69159716 3.38772897 9.0299782 6.78185183 13 11 C12.16726562 10.72542969 11.33453125 10.45085937 10.4765625 10.16796875 C5.42953583 9.92412364 3.17473882 12.22227889 -0.625 15.3125 C-1.31996582 15.85487305 -2.01493164 16.39724609 -2.73095703 16.95605469 C-8.18320945 21.24130745 -13.50160251 25.69348665 -18.7421875 30.234375 C-21 32 -21 32 -23 32 C-23.12375 33.60875 -23.12375 33.60875 -23.25 35.25 C-24.05476902 39.2738451 -24.87729874 40.48169253 -28 43 C-26.35 43.33 -24.7 43.66 -23 44 C-23 44.33 -23 44.66 -23 45 C-26 45 -29 45 -32 45 C-33.37310707 46.29233607 -34.71034824 47.62437146 -36 49 C-35.62879506 46.35016779 -35.30262641 45.25540339 -33.22265625 43.5 C-32.50980469 43.005 -31.79695313 42.51 -31.0625 42 C-28.35129691 39.77871606 -27.14790579 38.69910134 -26.4140625 35.23046875 C-26.33929688 34.22628906 -26.26453125 33.22210938 -26.1875 32.1875 C-25.43539633 25.39321512 -22.47333326 22.74855954 -17.30078125 18.53515625 C-16.77307129 18.13055176 -16.24536133 17.72594727 -15.70166016 17.30908203 C-13.84917927 15.88397407 -12.03996702 14.41283437 -10.23046875 12.93359375 C-0.42476255 5 -0.42476255 5 2 5 C1.34 3.35 0.68 1.7 0 0 Z " fill="#F1F1F1" transform="translate(130,137)"/>
<path d="M0 0 C1.32 0.66 2.64 1.32 4 2 C2.48947977 5.67670584 0.3511385 7.71874462 -2.625 10.3125 C-3.52992188 11.1065625 -4.43484375 11.900625 -5.3671875 12.71875 C-6.23601562 13.4715625 -7.10484375 14.224375 -8 15 C-8.96292969 15.85078125 -8.96292969 15.85078125 -9.9453125 16.71875 C-14.99477901 21.17801912 -20.12634557 25.5432037 -25.25292969 29.91333008 C-27.56537028 31.88872576 -29.848509 33.848509 -32 36 C-35.01305957 35.61121812 -36.39685311 34.73543126 -39 33 C-37.67789709 29.9881398 -36.36610497 28.19459869 -33.796875 26.15234375 C-32.83092407 25.37600586 -32.83092407 25.37600586 -31.84545898 24.58398438 C-31.15395752 24.04064453 -30.46245605 23.49730469 -29.75 22.9375 C-29.03851807 22.36966797 -28.32703613 21.80183594 -27.59399414 21.21679688 C-25.40169034 19.47054623 -23.20134687 17.73482972 -21 16 C-19.69107838 14.96004795 -18.38246846 13.91970343 -17.07421875 12.87890625 C-15.86250875 11.91860222 -14.65029431 10.95893426 -13.4375 10 C-12.89125977 9.5680835 -12.34501953 9.13616699 -11.78222656 8.69116211 C-7.93548774 5.67451521 -3.99324854 2.81994853 0 0 Z " fill="#080808" transform="translate(190,104)"/>
<path d="M0 0 C1.32 0.66 2.64 1.32 4 2 C2.66061969 5.11622789 1.38725324 6.74803091 -1.39453125 8.671875 C-2.09336426 9.16405518 -2.79219727 9.65623535 -3.51220703 10.16333008 C-4.27130371 10.68693115 -5.03040039 11.21053223 -5.8125 11.75 C-13.20085006 16.9568465 -20.44857744 22.31702468 -27.625 27.8125 C-28.55546143 28.52438477 -29.48592285 29.23626953 -30.44458008 29.96972656 C-32.63117596 31.64460098 -34.81639566 33.32122836 -37 35 C-39 34 -41 33 -43 32 C-43 31.34 -43 30.68 -43 30 C-41.11083984 28.46289062 -41.11083984 28.46289062 -38.4609375 26.65625 C-37.49406006 25.99141602 -36.52718262 25.32658203 -35.53100586 24.64160156 C-34.48952393 23.93487305 -33.44804199 23.22814453 -32.375 22.5 C-30.25863651 21.04757136 -28.14274998 19.5944475 -26.02734375 18.140625 C-24.99335449 17.43228516 -23.95936523 16.72394531 -22.89404297 15.99414062 C-18.16173933 12.73334629 -13.50056668 9.37745793 -8.83984375 6.015625 C-5.92884173 3.94949427 -2.97941665 1.96561812 0 0 Z " fill="#090909" transform="translate(183,96)"/>
<path d="M0 0 C0.99 0.33 1.98 0.66 3 1 C2.18208984 1.89138672 2.18208984 1.89138672 1.34765625 2.80078125 C-3.45298968 8.07738866 -8.05751671 13.46187705 -12.54296875 19.0078125 C-15.35093333 22.42736872 -18.23221893 25.77726051 -21.125 29.125 C-25.58534998 34.29272756 -29.89795086 39.54023037 -34 45 C-34.66 44.34 -35.32 43.68 -36 43 C-35.45472656 42.40574219 -34.90945312 41.81148437 -34.34765625 41.19921875 C-29.52659351 35.9001703 -24.89618972 30.49472226 -20.390625 24.92578125 C-17.75974521 21.70596269 -15.07252081 18.53891244 -12.375 15.375 C-8.10433041 10.35854015 -3.97765808 5.25376682 0 0 Z " fill="#DDDDDD" transform="translate(221,169)"/>
<path d="M0 0 C0.33 0 0.66 0 1 0 C1.35338623 2.96844435 1.5417682 5.15598218 -0.11328125 7.734375 C-1.35503168 9.20348819 -2.67337918 10.60704814 -4 12 C-2.35 12.33 -0.7 12.66 1 13 C1 13.33 1 13.66 1 14 C-2 14 -5 14 -8 14 C-9.37310707 15.29233607 -10.71034824 16.62437146 -12 18 C-11.45840409 14.23344666 -10.09285843 12.96503239 -7.125 10.6875 C-3.18165343 7.42257865 -1.57819508 4.83322243 0 0 Z " fill="#EAEAEA" transform="translate(106,168)"/>
<path d="M0 0 C0.99 0.33 1.98 0.66 3 1 C2.443125 1.60585937 1.88625 2.21171875 1.3125 2.8359375 C-4.03799629 8.71063781 -9.10991041 14.73748745 -14 21 C-14.66 20.34 -15.32 19.68 -16 19 C-15.34773437 18.29875 -14.69546875 17.5975 -14.0234375 16.875 C-9.0360058 11.46091485 -4.24755863 6.02600798 0 0 Z " fill="#D8D8D8" transform="translate(221,169)"/>
<path d="M0 0 C0.66 0.33 1.32 0.66 2 1 C-3.94 6.94 -9.88 12.88 -16 19 C-16.66 18.67 -17.32 18.34 -18 18 C-6.66287016 5.33029613 -6.66287016 5.33029613 0 0 Z " fill="#4F4F4F" transform="translate(58,39)"/>
<path d="M0 0 C1.2065625 0.0309375 1.2065625 0.0309375 2.4375 0.0625 C3.0625 2.4375 3.0625 2.4375 3.4375 5.0625 C2.7775 5.7225 2.1175 6.3825 1.4375 7.0625 C-0.6875 6.6875 -0.6875 6.6875 -2.5625 6.0625 C-2.94468767 4.40635343 -3.27645102 2.73792976 -3.5625 1.0625 C-2.5625 0.0625 -2.5625 0.0625 0 0 Z " fill="#F0F0F0" transform="translate(96.5625,168.9375)"/>
<path d="M0 0 C0 0.66 0 1.32 0 2 C1.65 2.33 3.3 2.66 5 3 C5 3.33 5 3.66 5 4 C2 4 -1 4 -4 4 C-5.37310707 5.29233607 -6.71034824 6.62437146 -8 8 C-7.65978036 4.82461668 -6.97533396 3.97723135 -4.5625 1.75 C-2 0 -2 0 0 0 Z " fill="#CECECE" transform="translate(102,178)"/>
<path d="M0 0 C0.99 0.33 1.98 0.66 3 1 C0.69 3.64 -1.62 6.28 -4 9 C-4.66 8.34 -5.32 7.68 -6 7 C-4.02 4.69 -2.04 2.38 0 0 Z " fill="#CACACA" transform="translate(211,181)"/>
</svg>
